<svg width="24" height="24" viewBox="0 0 24 24" fill="none" xmlns="http://www.w3.org/2000/svg">
<path d="M2.4855 7.7087L11.4855 2.3087C11.8022 2.11869 12.1978 2.11869 12.5145 2.3087L21.5145 7.7087C21.8157 7.88942 22 8.21493 22 8.56619V15.4338C22 15.7851 21.8157 16.1106 21.5145 16.2913L12.5145 21.6913C12.1978 21.8813 11.8022 21.8813 11.4855 21.6913L2.4855 16.2913C2.1843 16.1106 2 15.7851 2 15.4338V8.56619C2 8.21493 2.1843 7.88942 2.4855 7.7087Z" stroke="url(#paint0_linear_62_180)" stroke-width="2.5"/>
<path d="M9.39205 9.18182V15H8.19886L5.88352 11.642H5.84659V15H4.44034V9.18182H5.65057L7.94034 12.5341H7.98864V9.18182H9.39205ZM10.2763 15V9.18182H14.2479V10.3239H11.6825V11.517H13.995V12.6619H11.6825V15H10.2763ZM14.7656 10.3239V9.18182H19.6832V10.3239H17.919V15H16.5327V10.3239H14.7656Z" fill="#00456C"/>
<defs>
<linearGradient id="paint0_linear_62_180" x1="12" y1="2" x2="12" y2="22" gradientUnits="userSpaceOnUse">
<stop stop-color="#C73F97"/>
<stop offset="1" stop-color="#2898FF"/>
</linearGradient>
</defs>
</svg>
