<svg width="18" height="18" viewBox="0 0 18 18" fill="none" xmlns="http://www.w3.org/2000/svg">
<path d="M3.16675 17.4583C2.44453 17.4583 1.82647 17.2014 1.31258 16.6875C0.798693 16.1736 0.541748 15.5555 0.541748 14.8333V3.16666C0.541748 2.43055 0.798693 1.80555 1.31258 1.29166C1.82647 0.777773 2.44453 0.520828 3.16675 0.520828H14.8334C15.5695 0.520828 16.1945 0.777773 16.7084 1.29166C17.2223 1.80555 17.4792 2.43055 17.4792 3.16666V14.8333C17.4792 15.5555 17.2223 16.1736 16.7084 16.6875C16.1945 17.2014 15.5695 17.4583 14.8334 17.4583H3.16675ZM3.16675 15.9375H14.8334C15.1529 15.9375 15.4202 15.8333 15.6355 15.625C15.8508 15.4167 15.9584 15.1528 15.9584 14.8333V3.16666C15.9584 2.84722 15.8508 2.57986 15.6355 2.36458C15.4202 2.1493 15.1529 2.04166 14.8334 2.04166H3.16675C2.8473 2.04166 2.58341 2.1493 2.37508 2.36458C2.16675 2.57986 2.06258 2.84722 2.06258 3.16666V14.8333C2.06258 15.1528 2.16675 15.4167 2.37508 15.625C2.58341 15.8333 2.8473 15.9375 3.16675 15.9375ZM4.18758 13.9167L7.33341 10.7708L8.85425 12.25L10.6667 9.93749L13.8542 13.9167H4.18758ZM5.66675 7.24999C5.23619 7.24999 4.86466 7.09374 4.55216 6.78124C4.23966 6.46874 4.08341 6.09722 4.08341 5.66666C4.08341 5.23611 4.23966 4.86111 4.55216 4.54166C4.86466 4.22222 5.23619 4.06249 5.66675 4.06249C6.11119 4.06249 6.48966 4.22222 6.80216 4.54166C7.11466 4.86111 7.27091 5.23611 7.27091 5.66666C7.27091 6.11111 7.11466 6.48611 6.80216 6.79166C6.48966 7.09722 6.11119 7.24999 5.66675 7.24999V7.24999Z" fill="url(#paint0_linear_62_184)"/>
<defs>
<linearGradient id="paint0_linear_62_184" x1="9.0105" y1="0.520828" x2="9.0105" y2="17.4583" gradientUnits="userSpaceOnUse">
<stop stop-color="#C73F97"/>
<stop offset="1" stop-color="#2898FF"/>
</linearGradient>
</defs>
</svg>
